<svg xmlns="http://www.w3.org/2000/svg" width="20" height="20" viewBox="0 0 20 20">
  <g id="exchange" transform="translate(-2 -2)">
    <path id="primary" d="M14.57,4.43a8,8,0,0,1,3.09,1.91,8.13,8.13,0,0,1,2,3.3" fill="none" stroke="#fff" stroke-linecap="round" stroke-linejoin="round" stroke-width="2"/>
    <path id="primary-2" data-name="primary" d="M7,3a4,4,0,1,0,4,4A4,4,0,0,0,7,3ZM17,21a4,4,0,1,0-4-4A4,4,0,0,0,17,21Z" fill="none" stroke="#fff" stroke-linecap="round" stroke-linejoin="round" stroke-width="2"/>
    <path id="primary-3" data-name="primary" d="M17.85,8.81l1.81.84.84-1.81" fill="none" stroke="#fff" stroke-linecap="round" stroke-linejoin="round" stroke-width="2"/>
    <path id="primary-4" data-name="primary" d="M4.35,14.36a8.13,8.13,0,0,0,2,3.3,8,8,0,0,0,3.09,1.91" fill="none" stroke="#fff" stroke-linecap="round" stroke-linejoin="round" stroke-width="2"/>
    <path id="primary-5" data-name="primary" d="M6.15,15.19l-1.81-.84L3.5,16.16" fill="none" stroke="#fff" stroke-linecap="round" stroke-linejoin="round" stroke-width="2"/>
  </g>
</svg>
