<?xml version="1.0" standalone="no"?>
<!DOCTYPE svg PUBLIC "-//W3C//DTD SVG 20010904//EN"
 "http://www.w3.org/TR/2001/REC-SVG-20010904/DTD/svg10.dtd">
<svg version="1.0" xmlns="http://www.w3.org/2000/svg"
 width="128.000000pt" height="128.000000pt" viewBox="0 0 128.000000 128.000000"
 preserveAspectRatio="xMidYMid meet">

<g transform="translate(0.000000,128.000000) scale(0.100000,-0.100000)"
fill="#000000" stroke="none">
<path d="M525 1165 c-134 -29 -246 -104 -325 -216 -61 -88 -90 -174 -97 -289
-6 -110 -17 -136 -64 -161 -38 -19 -39 -21 -39 -75 l0 -56 458 232 c251 128
539 275 640 327 l182 95 0 55 0 54 -202 -104 c-112 -57 -356 -182 -542 -277
l-339 -173 5 87 c11 167 102 301 256 374 73 35 82 37 177 37 80 0 113 -5 166
-24 l65 -23 42 21 c23 12 42 25 42 30 0 15 -129 72 -197 86 -83 18 -149 18
-228 0z"/>
<path d="M637 581 l-637 -325 0 -54 c0 -29 4 -52 8 -50 5 2 245 123 534 271
289 147 529 267 533 267 4 0 6 -37 3 -83 -3 -66 -11 -96 -36 -150 -101 -216
-361 -319 -571 -226 l-46 20 -47 -22 c-27 -12 -48 -26 -48 -29 0 -15 119 -70
181 -85 275 -64 551 87 642 354 11 32 23 101 27 160 6 99 8 105 37 130 16 14
37 31 47 36 14 8 17 21 14 61 l-3 51 -638 -326z"/>
</g>
</svg>
